<mxfile host="app.diagrams.net" modified="2022-05-22T17:46:20.286Z" agent="5.0 (Windows)" etag="DZZKh86HsVjgmTVs1MyM" version="16.4.5" type="github">
  <diagram id="Arsce1lhnxzf3GvLfII_" name="第1頁">
    <mxGraphModel dx="1422" dy="1571" grid="1" gridSize="10" guides="1" tooltips="1" connect="1" arrows="1" fold="1" page="1" pageScale="1" pageWidth="1169" pageHeight="827" math="0" shadow="0">
      <root>
        <mxCell id="0" />
        <mxCell id="1" parent="0" />
        <mxCell id="sODQ3IuSzkhDvpB2BnHd-2" value="User" style="rounded=1;whiteSpace=wrap;html=1;fillColor=#FF6602;strokeColor=#BD7000;fontColor=#FFFFFF;fontSize=20;" parent="1" vertex="1">
          <mxGeometry x="235" y="-590" width="120" height="60" as="geometry" />
        </mxCell>
        <mxCell id="sODQ3IuSzkhDvpB2BnHd-4" value="Media" style="rounded=1;whiteSpace=wrap;html=1;fillColor=#FF6602;strokeColor=#BD7000;fontColor=#FFFFFF;fontSize=20;" parent="1" vertex="1">
          <mxGeometry x="525" y="-320" width="120" height="60" as="geometry" />
        </mxCell>
        <mxCell id="sODQ3IuSzkhDvpB2BnHd-5" value="Comment" style="rounded=1;whiteSpace=wrap;html=1;fillColor=#FF6602;strokeColor=#BD7000;fontColor=#FFFFFF;fontSize=20;" parent="1" vertex="1">
          <mxGeometry x="525" y="30" width="120" height="60" as="geometry" />
        </mxCell>
        <mxCell id="sODQ3IuSzkhDvpB2BnHd-6" value="Condition" style="rounded=1;whiteSpace=wrap;html=1;fillColor=#FF6602;strokeColor=#BD7000;fontColor=#FFFFFF;fontSize=20;" parent="1" vertex="1">
          <mxGeometry x="870" y="-130" width="120" height="60" as="geometry" />
        </mxCell>
        <mxCell id="sODQ3IuSzkhDvpB2BnHd-7" value="Award" style="rounded=1;whiteSpace=wrap;html=1;fillColor=#FF6602;strokeColor=#BD7000;fontColor=#FFFFFF;fontSize=20;" parent="1" vertex="1">
          <mxGeometry x="200" y="-130" width="120" height="60" as="geometry" />
        </mxCell>
        <mxCell id="sODQ3IuSzkhDvpB2BnHd-10" value="1" style="text;html=1;align=center;verticalAlign=middle;resizable=0;points=[];autosize=1;strokeColor=none;fillColor=none;fontStyle=0" parent="1" vertex="1">
          <mxGeometry x="380" y="-590" width="20" height="20" as="geometry" />
        </mxCell>
        <mxCell id="sODQ3IuSzkhDvpB2BnHd-11" value="M" style="text;html=1;align=center;verticalAlign=middle;resizable=0;points=[];autosize=1;strokeColor=none;fillColor=none;fontStyle=0" parent="1" vertex="1">
          <mxGeometry x="765" y="-590" width="20" height="20" as="geometry" />
        </mxCell>
        <mxCell id="FmEdOknebiSdJV2Z96Bn-4" value="Account" style="rounded=1;whiteSpace=wrap;html=1;fillColor=#FF6602;strokeColor=#BD7000;fontColor=#FFFFFF;fontSize=20;" parent="1" vertex="1">
          <mxGeometry x="805" y="-590" width="120" height="60" as="geometry" />
        </mxCell>
        <mxCell id="FmEdOknebiSdJV2Z96Bn-5" style="edgeStyle=orthogonalEdgeStyle;rounded=0;orthogonalLoop=1;jettySize=auto;html=1;strokeWidth=3;endArrow=none;endFill=0;strokeColor=#000000;" parent="1" source="sODQ3IuSzkhDvpB2BnHd-2" target="FmEdOknebiSdJV2Z96Bn-4" edge="1">
          <mxGeometry relative="1" as="geometry">
            <mxPoint x="340" y="-370" as="sourcePoint" />
            <mxPoint x="520" y="-280" as="targetPoint" />
          </mxGeometry>
        </mxCell>
        <mxCell id="FmEdOknebiSdJV2Z96Bn-6" style="rounded=0;orthogonalLoop=1;jettySize=auto;html=1;strokeWidth=3;endArrow=none;endFill=0;strokeColor=#000000;" parent="1" source="FmEdOknebiSdJV2Z96Bn-4" target="sODQ3IuSzkhDvpB2BnHd-4" edge="1">
          <mxGeometry relative="1" as="geometry">
            <mxPoint x="680" y="-210" as="sourcePoint" />
            <mxPoint x="730" y="-380" as="targetPoint" />
          </mxGeometry>
        </mxCell>
        <mxCell id="FmEdOknebiSdJV2Z96Bn-7" style="rounded=0;orthogonalLoop=1;jettySize=auto;html=1;strokeWidth=3;endArrow=none;endFill=0;strokeColor=#000000;" parent="1" source="sODQ3IuSzkhDvpB2BnHd-7" target="sODQ3IuSzkhDvpB2BnHd-4" edge="1">
          <mxGeometry relative="1" as="geometry">
            <mxPoint x="220" y="-370" as="sourcePoint" />
            <mxPoint x="260" y="-160" as="targetPoint" />
          </mxGeometry>
        </mxCell>
        <mxCell id="FmEdOknebiSdJV2Z96Bn-8" style="edgeStyle=orthogonalEdgeStyle;rounded=0;orthogonalLoop=1;jettySize=auto;html=1;strokeWidth=3;endArrow=none;endFill=0;strokeColor=#000000;" parent="1" source="sODQ3IuSzkhDvpB2BnHd-4" target="sODQ3IuSzkhDvpB2BnHd-5" edge="1">
          <mxGeometry relative="1" as="geometry">
            <mxPoint x="690" y="-180" as="sourcePoint" />
            <mxPoint x="585" y="70" as="targetPoint" />
          </mxGeometry>
        </mxCell>
        <mxCell id="FmEdOknebiSdJV2Z96Bn-9" style="rounded=0;orthogonalLoop=1;jettySize=auto;html=1;strokeWidth=3;endArrow=none;endFill=0;strokeColor=#000000;" parent="1" source="sODQ3IuSzkhDvpB2BnHd-4" target="sODQ3IuSzkhDvpB2BnHd-6" edge="1">
          <mxGeometry relative="1" as="geometry">
            <mxPoint x="240" y="-350" as="sourcePoint" />
            <mxPoint x="860" y="-40" as="targetPoint" />
          </mxGeometry>
        </mxCell>
        <mxCell id="FmEdOknebiSdJV2Z96Bn-10" value="&lt;u&gt;id&lt;/u&gt;" style="ellipse;whiteSpace=wrap;html=1;fillColor=#FFE598;fontSize=16;fontColor=#FF0000;" parent="1" vertex="1">
          <mxGeometry x="60" y="-620" width="90" height="60" as="geometry" />
        </mxCell>
        <mxCell id="FmEdOknebiSdJV2Z96Bn-12" value="name" style="ellipse;whiteSpace=wrap;html=1;fillColor=#FFE598;fontSize=16;" parent="1" vertex="1">
          <mxGeometry x="110" y="-710" width="90" height="60" as="geometry" />
        </mxCell>
        <mxCell id="FmEdOknebiSdJV2Z96Bn-16" value="email" style="ellipse;whiteSpace=wrap;html=1;fillColor=#FFE598;fontSize=16;" parent="1" vertex="1">
          <mxGeometry x="230" y="-730" width="90" height="60" as="geometry" />
        </mxCell>
        <mxCell id="FmEdOknebiSdJV2Z96Bn-17" value="access_token" style="ellipse;whiteSpace=wrap;html=1;fillColor=#FFE598;fontSize=16;" parent="1" vertex="1">
          <mxGeometry x="355" y="-730" width="110" height="60" as="geometry" />
        </mxCell>
        <mxCell id="FmEdOknebiSdJV2Z96Bn-19" style="rounded=0;orthogonalLoop=1;jettySize=auto;html=1;strokeWidth=3;endArrow=none;endFill=0;strokeColor=#FF6602;" parent="1" source="FmEdOknebiSdJV2Z96Bn-10" target="sODQ3IuSzkhDvpB2BnHd-2" edge="1">
          <mxGeometry relative="1" as="geometry">
            <mxPoint x="305" y="-520" as="sourcePoint" />
            <mxPoint x="305" y="-390" as="targetPoint" />
          </mxGeometry>
        </mxCell>
        <mxCell id="FmEdOknebiSdJV2Z96Bn-20" style="rounded=0;orthogonalLoop=1;jettySize=auto;html=1;strokeWidth=3;endArrow=none;endFill=0;strokeColor=#FF6602;" parent="1" source="FmEdOknebiSdJV2Z96Bn-12" target="sODQ3IuSzkhDvpB2BnHd-2" edge="1">
          <mxGeometry relative="1" as="geometry">
            <mxPoint x="185.8042641777356" y="-587.350678104902" as="sourcePoint" />
            <mxPoint x="245" y="-568.75" as="targetPoint" />
          </mxGeometry>
        </mxCell>
        <mxCell id="FmEdOknebiSdJV2Z96Bn-21" style="rounded=0;orthogonalLoop=1;jettySize=auto;html=1;strokeWidth=3;endArrow=none;endFill=0;strokeColor=#FF6602;" parent="1" source="FmEdOknebiSdJV2Z96Bn-16" target="sODQ3IuSzkhDvpB2BnHd-2" edge="1">
          <mxGeometry relative="1" as="geometry">
            <mxPoint x="195.8042641777356" y="-577.350678104902" as="sourcePoint" />
            <mxPoint x="255" y="-558.75" as="targetPoint" />
          </mxGeometry>
        </mxCell>
        <mxCell id="FmEdOknebiSdJV2Z96Bn-22" style="rounded=0;orthogonalLoop=1;jettySize=auto;html=1;strokeWidth=3;endArrow=none;endFill=0;strokeColor=#FF6602;" parent="1" source="FmEdOknebiSdJV2Z96Bn-17" target="sODQ3IuSzkhDvpB2BnHd-2" edge="1">
          <mxGeometry relative="1" as="geometry">
            <mxPoint x="205.8042641777356" y="-567.350678104902" as="sourcePoint" />
            <mxPoint x="265" y="-548.75" as="targetPoint" />
          </mxGeometry>
        </mxCell>
        <mxCell id="FmEdOknebiSdJV2Z96Bn-23" value="&lt;u&gt;id&lt;/u&gt;" style="ellipse;whiteSpace=wrap;html=1;fillColor=#FFE598;fontSize=16;fontColor=#FF0000;" parent="1" vertex="1">
          <mxGeometry x="690" y="-690" width="90" height="60" as="geometry" />
        </mxCell>
        <mxCell id="FmEdOknebiSdJV2Z96Bn-25" value="name" style="ellipse;whiteSpace=wrap;html=1;fillColor=#FFE598;fontSize=16;" parent="1" vertex="1">
          <mxGeometry x="830" y="-710" width="90" height="60" as="geometry" />
        </mxCell>
        <mxCell id="FmEdOknebiSdJV2Z96Bn-26" value="user_id" style="ellipse;whiteSpace=wrap;html=1;fillColor=#FFE598;fontSize=16;fontColor=#FF0000;" parent="1" vertex="1">
          <mxGeometry x="950" y="-660" width="90" height="60" as="geometry" />
        </mxCell>
        <mxCell id="FmEdOknebiSdJV2Z96Bn-28" style="rounded=0;orthogonalLoop=1;jettySize=auto;html=1;strokeWidth=3;endArrow=none;endFill=0;strokeColor=#FF6602;" parent="1" source="FmEdOknebiSdJV2Z96Bn-23" target="FmEdOknebiSdJV2Z96Bn-4" edge="1">
          <mxGeometry relative="1" as="geometry">
            <mxPoint x="755.8042641777356" y="-727.350678104902" as="sourcePoint" />
            <mxPoint x="815" y="-708.75" as="targetPoint" />
          </mxGeometry>
        </mxCell>
        <mxCell id="FmEdOknebiSdJV2Z96Bn-29" style="rounded=0;orthogonalLoop=1;jettySize=auto;html=1;strokeWidth=3;endArrow=none;endFill=0;strokeColor=#FF6602;" parent="1" source="FmEdOknebiSdJV2Z96Bn-25" target="FmEdOknebiSdJV2Z96Bn-4" edge="1">
          <mxGeometry relative="1" as="geometry">
            <mxPoint x="759.8188497479387" y="-557.3108690151237" as="sourcePoint" />
            <mxPoint x="815" y="-553.75" as="targetPoint" />
          </mxGeometry>
        </mxCell>
        <mxCell id="FmEdOknebiSdJV2Z96Bn-30" style="rounded=0;orthogonalLoop=1;jettySize=auto;html=1;strokeWidth=3;endArrow=none;endFill=0;strokeColor=#FF6602;" parent="1" source="FmEdOknebiSdJV2Z96Bn-26" target="FmEdOknebiSdJV2Z96Bn-4" edge="1">
          <mxGeometry relative="1" as="geometry">
            <mxPoint x="769.8188497479387" y="-547.3108690151237" as="sourcePoint" />
            <mxPoint x="825" y="-543.75" as="targetPoint" />
          </mxGeometry>
        </mxCell>
        <mxCell id="FmEdOknebiSdJV2Z96Bn-31" value="last_media_id" style="ellipse;whiteSpace=wrap;html=1;fillColor=#FFE598;fontSize=16;" parent="1" vertex="1">
          <mxGeometry x="420" y="-660" width="120" height="60" as="geometry" />
        </mxCell>
        <mxCell id="FmEdOknebiSdJV2Z96Bn-32" style="rounded=0;orthogonalLoop=1;jettySize=auto;html=1;strokeWidth=3;endArrow=none;endFill=0;strokeColor=#FF6602;" parent="1" source="FmEdOknebiSdJV2Z96Bn-31" target="sODQ3IuSzkhDvpB2BnHd-2" edge="1">
          <mxGeometry relative="1" as="geometry">
            <mxPoint x="401.7179882264859" y="-646.7179882264859" as="sourcePoint" />
            <mxPoint x="335" y="-580" as="targetPoint" />
          </mxGeometry>
        </mxCell>
        <mxCell id="FmEdOknebiSdJV2Z96Bn-33" value="amount" style="ellipse;whiteSpace=wrap;html=1;fillColor=#FFE598;fontSize=16;" parent="1" vertex="1">
          <mxGeometry x="200" y="-20" width="90" height="60" as="geometry" />
        </mxCell>
        <mxCell id="FmEdOknebiSdJV2Z96Bn-34" value="name" style="ellipse;whiteSpace=wrap;html=1;fillColor=#FFE598;fontSize=16;" parent="1" vertex="1">
          <mxGeometry x="100" y="-60" width="90" height="60" as="geometry" />
        </mxCell>
        <mxCell id="FmEdOknebiSdJV2Z96Bn-35" value="media_id" style="ellipse;whiteSpace=wrap;html=1;fillColor=#FFE598;fontSize=16;fontColor=#FF0000;" parent="1" vertex="1">
          <mxGeometry x="210" y="-230" width="90" height="60" as="geometry" />
        </mxCell>
        <mxCell id="FmEdOknebiSdJV2Z96Bn-36" value="&lt;u&gt;id&lt;/u&gt;" style="ellipse;whiteSpace=wrap;html=1;fillColor=#FFE598;fontSize=16;fontColor=#FF0000;" parent="1" vertex="1">
          <mxGeometry x="80" y="-180" width="90" height="60" as="geometry" />
        </mxCell>
        <mxCell id="FmEdOknebiSdJV2Z96Bn-37" style="rounded=0;orthogonalLoop=1;jettySize=auto;html=1;strokeWidth=3;endArrow=none;endFill=0;strokeColor=#FF6602;" parent="1" source="sODQ3IuSzkhDvpB2BnHd-7" target="FmEdOknebiSdJV2Z96Bn-34" edge="1">
          <mxGeometry relative="1" as="geometry">
            <mxPoint x="479.81884974793866" y="-307.31086901512367" as="sourcePoint" />
            <mxPoint x="535" y="-303.75" as="targetPoint" />
          </mxGeometry>
        </mxCell>
        <mxCell id="FmEdOknebiSdJV2Z96Bn-39" style="rounded=0;orthogonalLoop=1;jettySize=auto;html=1;strokeWidth=3;endArrow=none;endFill=0;strokeColor=#FF6602;" parent="1" source="sODQ3IuSzkhDvpB2BnHd-7" target="FmEdOknebiSdJV2Z96Bn-36" edge="1">
          <mxGeometry relative="1" as="geometry">
            <mxPoint x="288.33333333333326" y="-120" as="sourcePoint" />
            <mxPoint x="308.0216400709121" y="-152.21722920694765" as="targetPoint" />
          </mxGeometry>
        </mxCell>
        <mxCell id="FmEdOknebiSdJV2Z96Bn-40" style="rounded=0;orthogonalLoop=1;jettySize=auto;html=1;strokeWidth=3;endArrow=none;endFill=0;strokeColor=#FF6602;" parent="1" source="sODQ3IuSzkhDvpB2BnHd-7" target="FmEdOknebiSdJV2Z96Bn-35" edge="1">
          <mxGeometry relative="1" as="geometry">
            <mxPoint x="238.125" y="-120" as="sourcePoint" />
            <mxPoint x="211.01078033510066" y="-145.51926556696412" as="targetPoint" />
          </mxGeometry>
        </mxCell>
        <mxCell id="FmEdOknebiSdJV2Z96Bn-41" style="rounded=0;orthogonalLoop=1;jettySize=auto;html=1;strokeWidth=3;endArrow=none;endFill=0;strokeColor=#FF6602;" parent="1" source="sODQ3IuSzkhDvpB2BnHd-7" target="FmEdOknebiSdJV2Z96Bn-33" edge="1">
          <mxGeometry relative="1" as="geometry">
            <mxPoint x="248.125" y="-110" as="sourcePoint" />
            <mxPoint x="221.01078033510066" y="-135.51926556696412" as="targetPoint" />
          </mxGeometry>
        </mxCell>
        <mxCell id="FmEdOknebiSdJV2Z96Bn-42" value="repeat_amount" style="ellipse;whiteSpace=wrap;html=1;fillColor=#FFE598;fontSize=16;" parent="1" vertex="1">
          <mxGeometry x="925" y="10" width="130" height="60" as="geometry" />
        </mxCell>
        <mxCell id="FmEdOknebiSdJV2Z96Bn-43" value="&lt;u&gt;id&lt;/u&gt;" style="ellipse;whiteSpace=wrap;html=1;fillColor=#FFE598;fontSize=16;fontColor=#FF0000;" parent="1" vertex="1">
          <mxGeometry x="835" y="-230" width="90" height="60" as="geometry" />
        </mxCell>
        <mxCell id="FmEdOknebiSdJV2Z96Bn-45" value="deadline" style="ellipse;whiteSpace=wrap;html=1;fillColor=#FFE598;fontSize=16;" parent="1" vertex="1">
          <mxGeometry x="830" y="-20" width="90" height="60" as="geometry" />
        </mxCell>
        <mxCell id="FmEdOknebiSdJV2Z96Bn-46" value="keyword" style="ellipse;whiteSpace=wrap;html=1;fillColor=#FFE598;fontSize=16;" parent="1" vertex="1">
          <mxGeometry x="1020" y="-60" width="90" height="60" as="geometry" />
        </mxCell>
        <mxCell id="FmEdOknebiSdJV2Z96Bn-47" value="order_selected" style="ellipse;whiteSpace=wrap;html=1;fillColor=#FFE598;fontSize=16;" parent="1" vertex="1">
          <mxGeometry x="1030" y="-150" width="120" height="60" as="geometry" />
        </mxCell>
        <mxCell id="FmEdOknebiSdJV2Z96Bn-48" value="media_id" style="ellipse;whiteSpace=wrap;html=1;fillColor=#FFE598;fontSize=16;fontColor=#FF0000;" parent="1" vertex="1">
          <mxGeometry x="950" y="-230" width="90" height="60" as="geometry" />
        </mxCell>
        <mxCell id="FmEdOknebiSdJV2Z96Bn-49" style="rounded=0;orthogonalLoop=1;jettySize=auto;html=1;strokeWidth=3;endArrow=none;endFill=0;strokeColor=#FF6602;" parent="1" source="sODQ3IuSzkhDvpB2BnHd-6" target="FmEdOknebiSdJV2Z96Bn-43" edge="1">
          <mxGeometry relative="1" as="geometry">
            <mxPoint x="703.2185489101635" y="-271.1417202906232" as="sourcePoint" />
            <mxPoint x="655" y="-284" as="targetPoint" />
          </mxGeometry>
        </mxCell>
        <mxCell id="FmEdOknebiSdJV2Z96Bn-50" style="rounded=0;orthogonalLoop=1;jettySize=auto;html=1;strokeWidth=3;endArrow=none;endFill=0;strokeColor=#FF6602;" parent="1" source="FmEdOknebiSdJV2Z96Bn-42" target="sODQ3IuSzkhDvpB2BnHd-6" edge="1">
          <mxGeometry relative="1" as="geometry">
            <mxPoint x="713.2185489101635" y="-261.1417202906232" as="sourcePoint" />
            <mxPoint x="665" y="-274" as="targetPoint" />
          </mxGeometry>
        </mxCell>
        <mxCell id="FmEdOknebiSdJV2Z96Bn-51" style="rounded=0;orthogonalLoop=1;jettySize=auto;html=1;strokeWidth=3;endArrow=none;endFill=0;strokeColor=#FF6602;" parent="1" source="FmEdOknebiSdJV2Z96Bn-47" target="sODQ3IuSzkhDvpB2BnHd-6" edge="1">
          <mxGeometry relative="1" as="geometry">
            <mxPoint x="999.284446757295" y="-152.44762152567318" as="sourcePoint" />
            <mxPoint x="968.3333333333335" y="-120" as="targetPoint" />
          </mxGeometry>
        </mxCell>
        <mxCell id="FmEdOknebiSdJV2Z96Bn-52" style="rounded=0;orthogonalLoop=1;jettySize=auto;html=1;strokeWidth=3;endArrow=none;endFill=0;strokeColor=#FF6602;" parent="1" source="FmEdOknebiSdJV2Z96Bn-46" target="sODQ3IuSzkhDvpB2BnHd-6" edge="1">
          <mxGeometry relative="1" as="geometry">
            <mxPoint x="1009.284446757295" y="-142.44762152567318" as="sourcePoint" />
            <mxPoint x="978.3333333333335" y="-110" as="targetPoint" />
          </mxGeometry>
        </mxCell>
        <mxCell id="FmEdOknebiSdJV2Z96Bn-53" style="rounded=0;orthogonalLoop=1;jettySize=auto;html=1;strokeWidth=3;endArrow=none;endFill=0;strokeColor=#FF6602;" parent="1" source="FmEdOknebiSdJV2Z96Bn-48" target="sODQ3IuSzkhDvpB2BnHd-6" edge="1">
          <mxGeometry relative="1" as="geometry">
            <mxPoint x="1019.284446757295" y="-132.44762152567318" as="sourcePoint" />
            <mxPoint x="988.3333333333335" y="-100" as="targetPoint" />
          </mxGeometry>
        </mxCell>
        <mxCell id="FmEdOknebiSdJV2Z96Bn-54" style="rounded=0;orthogonalLoop=1;jettySize=auto;html=1;strokeWidth=3;endArrow=none;endFill=0;strokeColor=#FF6602;" parent="1" source="FmEdOknebiSdJV2Z96Bn-45" target="sODQ3IuSzkhDvpB2BnHd-6" edge="1">
          <mxGeometry relative="1" as="geometry">
            <mxPoint x="1029.284446757295" y="-122.44762152567318" as="sourcePoint" />
            <mxPoint x="998.3333333333335" y="-90" as="targetPoint" />
          </mxGeometry>
        </mxCell>
        <mxCell id="FmEdOknebiSdJV2Z96Bn-55" value="caption" style="ellipse;whiteSpace=wrap;html=1;fillColor=#FFE598;fontSize=16;" parent="1" vertex="1">
          <mxGeometry x="370" y="-340" width="90" height="60" as="geometry" />
        </mxCell>
        <mxCell id="FmEdOknebiSdJV2Z96Bn-56" value="media_type" style="ellipse;whiteSpace=wrap;html=1;fillColor=#FFE598;fontSize=16;" parent="1" vertex="1">
          <mxGeometry x="795" y="-350" width="90" height="60" as="geometry" />
        </mxCell>
        <mxCell id="FmEdOknebiSdJV2Z96Bn-57" value="image_url" style="ellipse;whiteSpace=wrap;html=1;fillColor=#FFE598;fontSize=16;" parent="1" vertex="1">
          <mxGeometry x="435" y="-190" width="90" height="60" as="geometry" />
        </mxCell>
        <mxCell id="FmEdOknebiSdJV2Z96Bn-58" value="&lt;u&gt;id&lt;/u&gt;" style="ellipse;whiteSpace=wrap;html=1;fillColor=#FFE598;fontSize=16;fontColor=#FF0000;" parent="1" vertex="1">
          <mxGeometry x="380" y="-430" width="90" height="60" as="geometry" />
        </mxCell>
        <mxCell id="FmEdOknebiSdJV2Z96Bn-59" style="rounded=0;orthogonalLoop=1;jettySize=auto;html=1;strokeWidth=3;endArrow=none;endFill=0;strokeColor=#FF6602;" parent="1" source="sODQ3IuSzkhDvpB2BnHd-4" target="FmEdOknebiSdJV2Z96Bn-58" edge="1">
          <mxGeometry relative="1" as="geometry">
            <mxPoint x="288.4118285410618" y="-120" as="sourcePoint" />
            <mxPoint x="308.1612684613676" y="-152.17948702312856" as="targetPoint" />
          </mxGeometry>
        </mxCell>
        <mxCell id="FmEdOknebiSdJV2Z96Bn-60" style="rounded=0;orthogonalLoop=1;jettySize=auto;html=1;strokeWidth=3;endArrow=none;endFill=0;strokeColor=#FF6602;" parent="1" source="FmEdOknebiSdJV2Z96Bn-56" target="sODQ3IuSzkhDvpB2BnHd-4" edge="1">
          <mxGeometry relative="1" as="geometry">
            <mxPoint x="298.4118285410618" y="-110" as="sourcePoint" />
            <mxPoint x="318.1612684613676" y="-142.17948702312856" as="targetPoint" />
          </mxGeometry>
        </mxCell>
        <mxCell id="FmEdOknebiSdJV2Z96Bn-62" style="rounded=0;orthogonalLoop=1;jettySize=auto;html=1;strokeWidth=3;endArrow=none;endFill=0;strokeColor=#FF6602;" parent="1" source="FmEdOknebiSdJV2Z96Bn-57" target="sODQ3IuSzkhDvpB2BnHd-4" edge="1">
          <mxGeometry relative="1" as="geometry">
            <mxPoint x="460" y="-280" as="sourcePoint" />
            <mxPoint x="590" y="-280" as="targetPoint" />
          </mxGeometry>
        </mxCell>
        <mxCell id="FmEdOknebiSdJV2Z96Bn-63" value="permalink" style="ellipse;whiteSpace=wrap;html=1;fillColor=#FFE598;fontSize=16;" parent="1" vertex="1">
          <mxGeometry x="730" y="-410" width="90" height="60" as="geometry" />
        </mxCell>
        <mxCell id="FmEdOknebiSdJV2Z96Bn-64" style="rounded=0;orthogonalLoop=1;jettySize=auto;html=1;strokeWidth=3;endArrow=none;endFill=0;strokeColor=#FF6602;" parent="1" source="FmEdOknebiSdJV2Z96Bn-63" target="sODQ3IuSzkhDvpB2BnHd-4" edge="1">
          <mxGeometry relative="1" as="geometry">
            <mxPoint x="525.1246117975106" y="-186.8328157300141" as="sourcePoint" />
            <mxPoint x="572.5" y="-250" as="targetPoint" />
          </mxGeometry>
        </mxCell>
        <mxCell id="FmEdOknebiSdJV2Z96Bn-66" style="rounded=0;orthogonalLoop=1;jettySize=auto;html=1;strokeWidth=3;endArrow=none;endFill=0;strokeColor=#FF6602;" parent="1" source="sODQ3IuSzkhDvpB2BnHd-4" target="FmEdOknebiSdJV2Z96Bn-55" edge="1">
          <mxGeometry relative="1" as="geometry">
            <mxPoint x="539.3657633127159" y="-310" as="sourcePoint" />
            <mxPoint x="500.06122098877313" y="-331.1944360151126" as="targetPoint" />
          </mxGeometry>
        </mxCell>
        <mxCell id="FmEdOknebiSdJV2Z96Bn-67" value="timestamp" style="ellipse;whiteSpace=wrap;html=1;fillColor=#FFE598;fontSize=16;" parent="1" vertex="1">
          <mxGeometry x="715" y="-290" width="90" height="60" as="geometry" />
        </mxCell>
        <mxCell id="FmEdOknebiSdJV2Z96Bn-68" value="like_count" style="ellipse;whiteSpace=wrap;html=1;fillColor=#FFE598;fontSize=16;" parent="1" vertex="1">
          <mxGeometry x="570" y="-470" width="90" height="60" as="geometry" />
        </mxCell>
        <mxCell id="FmEdOknebiSdJV2Z96Bn-69" value="comments_count" style="ellipse;whiteSpace=wrap;html=1;fillColor=#FFE598;fontSize=16;" parent="1" vertex="1">
          <mxGeometry x="615" y="-180" width="140" height="70" as="geometry" />
        </mxCell>
        <mxCell id="FmEdOknebiSdJV2Z96Bn-70" value="account_id" style="ellipse;whiteSpace=wrap;html=1;fillColor=#FFE598;fontSize=16;fontColor=#FF0000;" parent="1" vertex="1">
          <mxGeometry x="470" y="-474" width="90" height="60" as="geometry" />
        </mxCell>
        <mxCell id="FmEdOknebiSdJV2Z96Bn-71" style="rounded=0;orthogonalLoop=1;jettySize=auto;html=1;strokeWidth=3;endArrow=none;endFill=0;strokeColor=#FF6602;" parent="1" source="FmEdOknebiSdJV2Z96Bn-68" target="sODQ3IuSzkhDvpB2BnHd-4" edge="1">
          <mxGeometry relative="1" as="geometry">
            <mxPoint x="518.0966035889487" y="-364.252966491008" as="sourcePoint" />
            <mxPoint x="567.7272727272725" y="-310" as="targetPoint" />
          </mxGeometry>
        </mxCell>
        <mxCell id="FmEdOknebiSdJV2Z96Bn-72" style="rounded=0;orthogonalLoop=1;jettySize=auto;html=1;strokeWidth=3;endArrow=none;endFill=0;strokeColor=#FF6602;" parent="1" source="FmEdOknebiSdJV2Z96Bn-67" target="sODQ3IuSzkhDvpB2BnHd-4" edge="1">
          <mxGeometry relative="1" as="geometry">
            <mxPoint x="587.1153061464393" y="-380.03316292543855" as="sourcePoint" />
            <mxPoint x="592.6923076923076" y="-310" as="targetPoint" />
          </mxGeometry>
        </mxCell>
        <mxCell id="FmEdOknebiSdJV2Z96Bn-73" style="rounded=0;orthogonalLoop=1;jettySize=auto;html=1;strokeWidth=3;endArrow=none;endFill=0;strokeColor=#FF6602;" parent="1" source="FmEdOknebiSdJV2Z96Bn-70" target="sODQ3IuSzkhDvpB2BnHd-4" edge="1">
          <mxGeometry relative="1" as="geometry">
            <mxPoint x="666.3667659586727" y="-382.6926742497783" as="sourcePoint" />
            <mxPoint x="615.769230769231" y="-310" as="targetPoint" />
          </mxGeometry>
        </mxCell>
        <mxCell id="FmEdOknebiSdJV2Z96Bn-74" style="rounded=0;orthogonalLoop=1;jettySize=auto;html=1;strokeWidth=3;endArrow=none;endFill=0;strokeColor=#FF6602;" parent="1" source="FmEdOknebiSdJV2Z96Bn-69" target="sODQ3IuSzkhDvpB2BnHd-4" edge="1">
          <mxGeometry relative="1" as="geometry">
            <mxPoint x="714.0996802742343" y="-242.51068603376348" as="sourcePoint" />
            <mxPoint x="655" y="-261.25" as="targetPoint" />
          </mxGeometry>
        </mxCell>
        <mxCell id="FmEdOknebiSdJV2Z96Bn-76" value="&lt;u&gt;id&lt;/u&gt;" style="ellipse;whiteSpace=wrap;html=1;fillColor=#FFE598;fontSize=16;fontColor=#FF0000;" parent="1" vertex="1">
          <mxGeometry x="400" y="-20" width="90" height="60" as="geometry" />
        </mxCell>
        <mxCell id="FmEdOknebiSdJV2Z96Bn-77" value="&lt;div&gt;timestamp&lt;br&gt;&lt;/div&gt;" style="ellipse;whiteSpace=wrap;html=1;fillColor=#FFE598;fontSize=16;" parent="1" vertex="1">
          <mxGeometry x="610" y="120" width="90" height="60" as="geometry" />
        </mxCell>
        <mxCell id="FmEdOknebiSdJV2Z96Bn-78" value="username" style="ellipse;whiteSpace=wrap;html=1;fillColor=#FFE598;fontSize=16;" parent="1" vertex="1">
          <mxGeometry x="470" y="120" width="90" height="60" as="geometry" />
        </mxCell>
        <mxCell id="FmEdOknebiSdJV2Z96Bn-79" value="tag_amount" style="ellipse;whiteSpace=wrap;html=1;fillColor=#FFE598;fontSize=16;" parent="1" vertex="1">
          <mxGeometry x="360" y="80" width="90" height="60" as="geometry" />
        </mxCell>
        <mxCell id="FmEdOknebiSdJV2Z96Bn-80" value="media_id" style="ellipse;whiteSpace=wrap;html=1;fillColor=#FFE598;fontSize=16;fontColor=#FF0000;" parent="1" vertex="1">
          <mxGeometry x="680" y="10" width="90" height="60" as="geometry" />
        </mxCell>
        <mxCell id="FmEdOknebiSdJV2Z96Bn-81" style="rounded=0;orthogonalLoop=1;jettySize=auto;html=1;strokeWidth=3;endArrow=none;endFill=0;strokeColor=#FF6602;" parent="1" source="sODQ3IuSzkhDvpB2BnHd-5" target="FmEdOknebiSdJV2Z96Bn-76" edge="1">
          <mxGeometry relative="1" as="geometry">
            <mxPoint x="535.5717002602104" y="41.713773093942564" as="sourcePoint" />
            <mxPoint x="574.4261538461539" y="-30" as="targetPoint" />
          </mxGeometry>
        </mxCell>
        <mxCell id="FmEdOknebiSdJV2Z96Bn-82" style="rounded=0;orthogonalLoop=1;jettySize=auto;html=1;strokeWidth=3;endArrow=none;endFill=0;strokeColor=#FF6602;" parent="1" source="sODQ3IuSzkhDvpB2BnHd-5" target="FmEdOknebiSdJV2Z96Bn-80" edge="1">
          <mxGeometry relative="1" as="geometry">
            <mxPoint x="565" y="40" as="sourcePoint" />
            <mxPoint x="529.9615088301352" y="4.961508830135244" as="targetPoint" />
          </mxGeometry>
        </mxCell>
        <mxCell id="FmEdOknebiSdJV2Z96Bn-83" style="rounded=0;orthogonalLoop=1;jettySize=auto;html=1;strokeWidth=3;endArrow=none;endFill=0;strokeColor=#FF6602;" parent="1" source="sODQ3IuSzkhDvpB2BnHd-5" target="FmEdOknebiSdJV2Z96Bn-77" edge="1">
          <mxGeometry relative="1" as="geometry">
            <mxPoint x="628.75" y="40" as="sourcePoint" />
            <mxPoint x="658" y="14" as="targetPoint" />
          </mxGeometry>
        </mxCell>
        <mxCell id="FmEdOknebiSdJV2Z96Bn-84" style="rounded=0;orthogonalLoop=1;jettySize=auto;html=1;strokeWidth=3;endArrow=none;endFill=0;strokeColor=#FF6602;" parent="1" source="FmEdOknebiSdJV2Z96Bn-78" target="sODQ3IuSzkhDvpB2BnHd-5" edge="1">
          <mxGeometry relative="1" as="geometry">
            <mxPoint x="650.7142857142858" y="100" as="sourcePoint" />
            <mxPoint x="689.9926468908275" y="121.14988678736859" as="targetPoint" />
          </mxGeometry>
        </mxCell>
        <mxCell id="FmEdOknebiSdJV2Z96Bn-85" style="rounded=0;orthogonalLoop=1;jettySize=auto;html=1;strokeWidth=3;endArrow=none;endFill=0;strokeColor=#FF6602;" parent="1" source="FmEdOknebiSdJV2Z96Bn-79" target="sODQ3IuSzkhDvpB2BnHd-5" edge="1">
          <mxGeometry relative="1" as="geometry">
            <mxPoint x="545.4799976905124" y="133.28695953411443" as="sourcePoint" />
            <mxPoint x="571.6666666666667" y="100" as="targetPoint" />
          </mxGeometry>
        </mxCell>
        <mxCell id="FmEdOknebiSdJV2Z96Bn-86" value="1" style="text;html=1;align=center;verticalAlign=middle;resizable=0;points=[];autosize=1;strokeColor=none;fillColor=none;fontStyle=0" parent="1" vertex="1">
          <mxGeometry x="770" y="-520" width="20" height="20" as="geometry" />
        </mxCell>
        <mxCell id="FmEdOknebiSdJV2Z96Bn-87" value="M" style="text;html=1;align=center;verticalAlign=middle;resizable=0;points=[];autosize=1;strokeColor=none;fillColor=none;rotation=0;fontStyle=0" parent="1" vertex="1">
          <mxGeometry x="620" y="-370" width="20" height="20" as="geometry" />
        </mxCell>
        <mxCell id="FmEdOknebiSdJV2Z96Bn-88" value="1" style="text;html=1;align=center;verticalAlign=middle;resizable=0;points=[];autosize=1;strokeColor=none;fillColor=none;fontStyle=0" parent="1" vertex="1">
          <mxGeometry x="640" y="-250" width="20" height="20" as="geometry" />
        </mxCell>
        <mxCell id="FmEdOknebiSdJV2Z96Bn-89" value="1" style="text;html=1;align=center;verticalAlign=middle;resizable=0;points=[];autosize=1;strokeColor=none;fillColor=none;fontStyle=0" parent="1" vertex="1">
          <mxGeometry x="830" y="-140" width="20" height="20" as="geometry" />
        </mxCell>
        <mxCell id="FmEdOknebiSdJV2Z96Bn-90" value="M" style="text;html=1;align=center;verticalAlign=middle;resizable=0;points=[];autosize=1;strokeColor=none;fillColor=none;fontStyle=0" parent="1" vertex="1">
          <mxGeometry x="590" width="20" height="20" as="geometry" />
        </mxCell>
        <mxCell id="FmEdOknebiSdJV2Z96Bn-91" value="1" style="text;html=1;align=center;verticalAlign=middle;resizable=0;points=[];autosize=1;strokeColor=none;fillColor=none;fontStyle=0" parent="1" vertex="1">
          <mxGeometry x="590" y="-240" width="20" height="20" as="geometry" />
        </mxCell>
        <mxCell id="FmEdOknebiSdJV2Z96Bn-92" value="M" style="text;html=1;align=center;verticalAlign=middle;resizable=0;points=[];autosize=1;strokeColor=none;fillColor=none;fontStyle=0" parent="1" vertex="1">
          <mxGeometry x="330" y="-140" width="20" height="20" as="geometry" />
        </mxCell>
        <mxCell id="FmEdOknebiSdJV2Z96Bn-93" value="1" style="text;html=1;align=center;verticalAlign=middle;resizable=0;points=[];autosize=1;strokeColor=none;fillColor=none;fontStyle=0" parent="1" vertex="1">
          <mxGeometry x="510" y="-250" width="20" height="20" as="geometry" />
        </mxCell>
        <mxCell id="FmEdOknebiSdJV2Z96Bn-95" style="edgeStyle=none;rounded=0;orthogonalLoop=1;jettySize=auto;html=1;exitX=0.5;exitY=0;exitDx=0;exitDy=0;fontColor=#FF0000;strokeColor=#000000;" parent="1" source="FmEdOknebiSdJV2Z96Bn-17" target="FmEdOknebiSdJV2Z96Bn-17" edge="1">
          <mxGeometry relative="1" as="geometry" />
        </mxCell>
      </root>
    </mxGraphModel>
  </diagram>
</mxfile>
